<svg role="img" viewBox="0 0 24 24" xmlns="http://www.w3.org/2000/svg" fill="#3152A0"><path d="M20.345 4.135v15.73c0 .334-.272.606-.606.606h-3.065a.607.607 0 01-.606-.606V4.135c0-.334.272-.606.606-.606h3.065c.334 0 .606.272.606.606zM7.932 4.135v15.73c0 .334-.272.606-.606.606H4.261a.607.607 0 01-.606-.606V4.135c0-.334.272-.606.606-.606H7.326c.334 0 .606.272.606.606zm6.207 4.393v11.337c0 .334-.272.606-.606.606h-3.066a.607.607 0 01-.606-.606V8.528c0-.334.272-.606.606-.606h3.066c.334 0 .606.272.606.606z"/></svg>