<svg role="img" viewBox="0 0 24 24" xmlns="http://www.w3.org/2000/svg" fill="#4945FF"><path d="M16.204 1.199H8.017c-.256 0-.458.21-.458.458V7.82c0 .256.21.458.458.458h6.187c.256 0 .458.21.458.458v6.195c0 .256.21.458.458.458h6.187c.256 0 .458-.21.458-.458V1.649c0-.256-.21-.458-.458-.458h-5.103zm-8.186 0H1.649c-.256 0-.458.21-.458.458v13.395c0 .256.21.458.458.458h6.37c.256 0 .458-.21.458-.458V1.657c0-.256-.21-.458-.458-.458zm0 15.31H1.649c-.256 0-.458.21-.458.458v5.387c0 .256.21.458.458.458h6.37c.256 0 .458-.21.458-.458v-5.387c0-.256-.21-.458-.458-.458z"/></svg>