<svg role="img" viewBox="0 0 24 24" xmlns="http://www.w3.org/2000/svg" fill="#96588A"><path d="M23.735 10.449C23.735 4.684 18.5 0 12 0S.265 4.684.265 10.449c0 5.207 4.395 9.563 10.375 10.325.404.087.953.267 1.091.614.127.315.083.809.041 1.127l-.173 1.038c-.053.303-.242 1.186 1.038.647 1.28-.54 6.911-4.07 9.428-6.966h-.001c1.743-1.93 2.671-4.13 2.671-6.785z"/><path d="M9.96 7.712H7.78c-.213 0-.387.173-.387.387v6.897c0 .213.173.387.387.387h2.18c1.326 0 2.412-1.085 2.412-2.412v-2.447c0-1.326-1.085-2.412-2.412-2.412zm1.286 4.859c0 .709-.577 1.286-1.286 1.286H8.554V8.838H9.96c.709 0 1.286.577 1.286 1.286v2.447zm7.683-4.859h-2.18a.387.387 0 0 0-.386.387v4.116l-3.194-4.339a.383.383 0 0 0-.028-.034l-.004-.005a.384.384 0 0 0-.028-.026l-.005-.004a.383.383 0 0 0-.028-.021l-.005-.003a.384.384 0 0 0-.031-.017l-.004-.002a.383.383 0 0 0-.032-.013l-.005-.002a.384.384 0 0 0-.034-.009l-.005-.001A.384.384 0 0 0 12.88 7.712h-2.18a.387.387 0 0 0-.386.387v6.897c0 .213.173.387.386.387h2.18c.213 0 .387-.173.387-.387v-4.116l3.194 4.339c.036.049.079.091.128.125l.003.002a.384.384 0 0 0 .036.021l.004.002a.384.384 0 0 0 .038.015l.004.001a.384.384 0 0 0 .039.009h.001a.384.384 0 0 0 .04.004h2.179c.213 0 .387-.173.387-.387V8.099a.387.387 0 0 0-.387-.387z"/></svg>